{"title":"Bottersnikes &amp; Gumbles S01E02 - King Sized Calamity","uid":15416085,"size":216821762,"categoryP":"video","categoryS":"hd___tv_shows","magnet":"?xt=urn:btih:5d91f5e46d8c89aab75bb82440d58c4ea77dfb90&amp;dn=Bottersnikes+%26amp%3B+Gumbles+S01E02+-+King+Sized+Calamity&amp;tr=udp%3A%2F%2Ftracker.leechers-paradise.org%3A6969&amp;tr=udp%3A%2F%2Fzer0day.ch%3A1337&amp;tr=udp%3A%2F%2Fopen.demonii.com%3A1337&amp;tr=udp%3A%2F%2Ftracker.coppersurfer.tk%3A6969&amp;tr=udp%3A%2F%2Fexodus.desync.com%3A6969","seeders":1,"leechers":0,"uploader":"RoaElson","files":2,"time":1469588270,"description":"Bottersnikes &amp; Gumbles S01E02 - King Sized Calamity\r\n\r\nHappi has finally finished building his Gumbly Horn and is excited to put on a musical performance, but when Bounce accidentally breaks the spring that powers the horn, she enlists Tink and Willi to help her steal a new one from the Bottersnikes.\r\n\r\n\r\nDuration: 12 minutes\r\n\r\n\r\nMedia Info:-\r\n\r\nGeneral\r\nGumbles - 2. King Sized Calamity.mp4\r\nFormat : MPEG-4\r\nFormat profile : Base Media\r\nCodec ID : isom (isom/iso2/avc1/mp41)\r\nFile size : 206 MiB\r\nDuration : 11mn 59s\r\nOverall bit rate mode : Variable\r\nOverall bit rate : 2 400 Kbps\r\n\r\nVideo\r\nID : 1\r\nFormat : AVC\r\nFormat/Info : Advanced Video Codec\r\nFormat profile :   \r\nFormat settings, CABAC : Yes\r\nFormat settings, ReFrames : 2 frames\r\nCodec ID : avc1\r\nCodec ID/Info : Advanced Video Coding\r\nDuration : 11mn 59s\r\nBit rate mode : Variable\r\nBit rate : 2 300 Kbps\r\nMaximum bit rate : 3 500 Kbps\r\nWidth : 1 280 pixels\r\nHeight : 720 pixels\r\nDisplay aspect ratio : 16:9\r\nFrame rate mode : Constant\r\nFrame rate : 25.000 fps\r\nColor space : YUV\r\nChroma subsampling : 4:2:0\r\nBit depth : 8 bits\r\nScan type : Progressive\r\nBits/(Pixel*Frame) : 0.100\r\nStream size : 197 MiB (96%)\r\n\r\nAudio\r\nID : 2\r\nFormat : AAC\r\nFormat/Info : Advanced Audio Codec\r\nFormat profile : LC\r\nCodec ID : 40\r\nDuration : 11mn 59s\r\nBit rate mode : Constant\r\nBit rate : 93.5 Kbps\r\nChannel(s) : 2 channels\r\nChannel positions : Front: L R\r\nSampling rate : 48.0 KHz\r\nFrame rate : 46.875 fps (1024 spf)\r\nCompression mode : Lossy\r\nStream size : 8.01 MiB (4%)","torrent":{"xt":"urn:btih:5d91f5e46d8c89aab75bb82440d58c4ea77dfb90","amp;dn":"Bottersnikes+%26amp%3B+Gumbles+S01E02+-+King+Sized+Calamity","amp;tr":["udp%3A%2F%2Ftracker.leechers-paradise.org%3A6969","udp%3A%2F%2Fzer0day.ch%3A1337","udp%3A%2F%2Fopen.demonii.com%3A1337","udp%3A%2F%2Ftracker.coppersurfer.tk%3A6969","udp%3A%2F%2Fexodus.desync.com%3A6969"],"infoHash":"5d91f5e46d8c89aab75bb82440d58c4ea77dfb90","infoHashBuffer":{"type":"Buffer","data":[93,145,245,228,109,140,137,170,183,91,184,36,64,213,140,78,167,125,251,144]},"announce":[],"urlList":[]}}